<?xml version="1.0" encoding="UTF-8" standalone="no"?>
<!-- Created with Inkscape (http://www.inkscape.org/) -->

<svg
   xmlns:dc="http://purl.org/dc/elements/1.1/"
   xmlns:cc="http://creativecommons.org/ns#"
   xmlns:rdf="http://www.w3.org/1999/02/22-rdf-syntax-ns#"
   xmlns:svg="http://www.w3.org/2000/svg"
   xmlns="http://www.w3.org/2000/svg"
   xmlns:sodipodi="http://sodipodi.sourceforge.net/DTD/sodipodi-0.dtd"
   xmlns:inkscape="http://www.inkscape.org/namespaces/inkscape"
   width="855.71619mm"
   height="1373.3105mm"
   viewBox="0 0 855.71619 1373.3105"
   version="1.1"
   id="svg8"
   inkscape:version="0.92.5 (2060ec1f9f, 2020-04-08)"
   sodipodi:docname="bad-pun-ahead.svg">
  <defs
     id="defs2" />
  <sodipodi:namedview
     id="base"
     pagecolor="#ffffff"
     bordercolor="#666666"
     borderopacity="1.0"
     inkscape:pageopacity="0.0"
     inkscape:pageshadow="2"
     inkscape:zoom="0.24748737"
     inkscape:cx="1693.6789"
     inkscape:cy="1382.2796"
     inkscape:document-units="mm"
     inkscape:current-layer="g882"
     showgrid="false"
     inkscape:window-width="1920"
     inkscape:window-height="1043"
     inkscape:window-x="1920"
     inkscape:window-y="0"
     inkscape:window-maximized="1"
     inkscape:snap-global="false"
     fit-margin-top="0"
     fit-margin-left="0"
     fit-margin-right="0"
     fit-margin-bottom="0" />
  <metadata
     id="metadata5">
    <rdf:RDF>
      <cc:Work
         rdf:about="">
        <dc:format>image/svg+xml</dc:format>
        <dc:type
           rdf:resource="http://purl.org/dc/dcmitype/StillImage" />
        <dc:title />
      </cc:Work>
    </rdf:RDF>
  </metadata>
  <g
     inkscape:label="Layer 1"
     inkscape:groupmode="layer"
     id="layer1"
     transform="translate(51.858091,1077.3105)">
    <rect
       style="opacity:1;vector-effect:none;fill:#fddc04;fill-opacity:1;fill-rule:nonzero;stroke:none;stroke-width:78.94929504;stroke-linecap:square;stroke-linejoin:round;stroke-miterlimit:4;stroke-dasharray:none;stroke-dashoffset:0;stroke-opacity:1"
       id="rect10"
       width="750"
       height="500"
       x="1.0000023"
       y="-204"
       rx="50"
       ry="50" />
    <rect
       ry="40"
       rx="40"
       y="-194"
       x="11.000002"
       height="480"
       width="730"
       id="rect829"
       style="opacity:1;vector-effect:none;fill:#000000;fill-opacity:1;fill-rule:nonzero;stroke:none;stroke-width:76.31583405;stroke-linecap:square;stroke-linejoin:round;stroke-miterlimit:4;stroke-dasharray:none;stroke-dashoffset:0;stroke-opacity:1" />
    <rect
       ry="20"
       rx="20"
       y="-174"
       x="31.000002"
       height="440"
       width="690"
       id="rect831"
       style="opacity:1;vector-effect:none;fill:#fddc04;fill-opacity:1;fill-rule:nonzero;stroke:none;stroke-width:71.03681946;stroke-linecap:square;stroke-linejoin:round;stroke-miterlimit:4;stroke-dasharray:none;stroke-dashoffset:0;stroke-opacity:1" />
    <g
       id="g881"
       transform="translate(12.170912,8.9958338)">
      <path
         inkscape:connector-curvature="0"
         id="path968"
         style="fill:#000000;fill-opacity:1;fill-rule:nonzero;stroke:none;stroke-width:0.35276821"
         d="m 205.99979,137.65125 -8.81665,-33.41119 -8.69333,33.41119 z M 188.48981,65.121693 h 17.50998 l 31.17393,124.190477 h -17.76061 l -8.94159,-34.527 h -25.33101 l -8.322,34.527 H 158.8099 L 188.48981,65.121693" />
      <path
         inkscape:connector-curvature="0"
         id="path966"
         style="fill:#000000;fill-opacity:1;fill-rule:nonzero;stroke:none;stroke-width:0.35276988"
         d="m 267.18884,66.358708 v 49.797942 h 33.80962 V 66.358708 h 16.35503 V 189.31217 h -16.35503 v -55.8179 h -33.80962 v 55.8179 H 249.72907 V 66.358708 h 17.45978" />
      <path
         inkscape:connector-curvature="0"
         id="path972"
         style="fill:#000000;fill-opacity:1;fill-rule:nonzero;stroke:none;stroke-width:0.35276553"
         d="m 395.96429,68.145508 v 17.089173 h -42.04156 v 30.412109 h 25.80365 v 16.59836 h -25.80365 v 39.98254 h 43.9778 v 17.08448 H 337.31722 V 68.145508 h 58.64707" />
      <path
         inkscape:connector-curvature="0"
         id="path968-5"
         style="fill:#000000;fill-opacity:1;fill-rule:nonzero;stroke:none;stroke-width:0.35276824"
         d="m 457.64579,137.65125 -8.81665,-33.41118 -8.69332,33.41118 z M 440.13582,65.121694 h 17.50997 l 31.17393,124.190476 h -17.76063 l -8.94157,-34.527 h -25.33103 l -8.322,34.527 h -18.0086 L 440.13582,65.121694" />
      <path
         inkscape:connector-curvature="0"
         id="path974"
         style="fill:#000000;fill-opacity:1;fill-rule:nonzero;stroke:none;stroke-width:0.35278109"
         d="m 518.42739,83.567751 v 88.446759 h 11.77653 c 8.83322,0 14.80595,-4.24509 17.9091,-12.75822 2.04714,-5.56019 3.06857,-14.64035 3.06857,-27.23447 v -6.98901 c 0,-13.41602 -1.13821,-23.02492 -3.43219,-28.836719 -3.35415,-8.41745 -9.73785,-12.62834 -19.13834,-12.62834 z m 42.56996,0 c 5.23248,9.32158 7.85093,23.019779 7.85093,41.096789 0,21.26182 -2.40634,36.72153 -7.23631,46.36759 -6.05052,12.18742 -16.85311,18.28004 -32.39058,18.28004 H 501.37507 V 66.633606 h 27.84632 c 14.80165,0 25.40084,5.642993 31.77596,16.934145" />
    </g>
    <rect
       style="fill:#fddc04;fill-opacity:1;stroke:none;stroke-width:0.63939899"
       id="rect18"
       width="634.30774"
       height="634.30774"
       x="407.9505"
       y="-510.51392"
       rx="50"
       ry="50"
       transform="rotate(-45)" />
    <rect
       style="fill:#000000;fill-opacity:1;stroke:none;stroke-width:0.62234801"
       id="rect20"
       width="617.39288"
       height="617.39288"
       x="416.4079"
       y="-502.05649"
       rx="40"
       ry="40"
       transform="rotate(-45)" />
    <rect
       style="fill:#fddc04;fill-opacity:1;stroke:none;stroke-width:0.588247"
       id="rect22"
       width="583.56311"
       height="583.56311"
       x="433.32281"
       y="-485.1416"
       rx="20"
       ry="20"
       transform="rotate(-45)" />
    <circle
       style="fill:#000000;fill-opacity:1;stroke:none;stroke-width:0.27226403"
       id="path32"
       cx="376"
       cy="-406.30118"
       r="74.002579" />
    <path
       style="fill:#000000;fill-opacity:1;fill-rule:nonzero;stroke:none;stroke-width:0.35278001"
       d="m 359.93074,-512.44195 c 0,0 -79.07703,-296.43574 -79.07703,-348.86916 l 95.14625,-95.14629 95.14634,95.14629 c 0,52.43342 -79.07704,348.86916 -79.07704,348.86916 z"
       id="path107"
       inkscape:connector-curvature="0"
       sodipodi:nodetypes="cccccc" />
    <path
       style="fill:#000000;fill-opacity:1;stroke:none;stroke-width:0.350052"
       id="circle874"
       sodipodi:type="arc"
       sodipodi:cx="376"
       sodipodi:cy="-861.31122"
       sodipodi:rx="95.146164"
       sodipodi:ry="95.146164"
       sodipodi:start="3.1415927"
       sodipodi:end="0"
       sodipodi:arc-type="slice"
       d="M 280.85384,-861.31122 A 95.146164,95.146164 0 0 1 376,-956.45738 a 95.146164,95.146164 0 0 1 95.14616,95.14616 H 376 Z" />
    <g
       id="g897"
       transform="translate(-4.6651587)">
      <g
         id="g887">
        <path
           inkscape:connector-curvature="0"
           id="path968-5-3"
           style="fill:#000000;fill-opacity:1;fill-rule:nonzero;stroke:none;stroke-width:0.35276824"
           d="m 216.54657,-19.098048 -8.81665,-33.4112 -8.69332,33.4112 z m -17.50997,-72.5296 h 17.50997 L 247.7205,32.562832 H 229.95987 L 221.0183,-1.9641681 h -25.33103 l -8.322,34.5270001 h -18.0086 l 29.67993,-124.19048" />
        <path
           inkscape:connector-curvature="0"
           id="path974-6"
           style="fill:#000000;fill-opacity:1;fill-rule:nonzero;stroke:none;stroke-width:0.35278109"
           d="m 277.32817,-73.181548 v 88.44672 h 11.77653 c 8.83322,0 14.80595,-4.24509 17.9091,-12.7582201 2.04714,-5.56019 3.06857,-14.6403499 3.06857,-27.2344999 v -6.989 c 0,-13.416 -1.13821,-23.0249 -3.43219,-28.8367 -3.35415,-8.4175 -9.73785,-12.6283 -19.13834,-12.6283 z m 42.56996,0 c 5.23248,9.3215 7.85093,23.0197 7.85093,41.0967 0,21.26187 -2.40634,36.7215799 -7.23631,46.36764 -6.05052,12.18742 -16.85311,18.28004 -32.39058,18.28004 h -27.84632 v -122.67858 h 27.84632 c 14.80165,0 25.40084,5.643 31.77596,16.9342" />
        <path
           inkscape:connector-curvature="0"
           id="path28"
           style="fill:#000000;fill-opacity:1;fill-rule:evenodd;stroke:none;stroke-width:0.35279247"
           d="m 94.89549,32.562832 h 39.50104 c 9.00059,0 16.29219,-3.4121 21.8762,-10.24599 4.91588,-6.16527 7.37281,-13.3314604 7.37281,-21.49779987 0,-16.41901013 -5.4158,-27.58841013 -16.2477,-33.50101013 5.3332,-4.0853 8.9575,-8.1283 10.8732,-12.1289 1.91951,-3.9971 2.87736,-9.3312 2.87736,-15.9989 0,-8.0012 -2.12632,-14.9194 -6.37506,-20.751 -5.24917,-7.2498 -12.8344,-10.8764 -22.75114,-10.8764 H 94.89549 Z m 16.74988,-107.6252 h 18.75183 c 5.74812,0 9.62464,1.7921 11.62575,5.3764 1.24856,2.2508 1.8744,5.8316 1.8744,10.7494 0,3.7503 -1.12476,7.2922 -3.3763,10.626 -2.66674,4.0007 -6.16723,6.001 -10.50137,6.001 h -18.37431 z m 0,50.6285 h 16.74933 c 6.16873,0 10.83619,3.0799 14.00327,9.2537 2.33302,4.40979 3.49759,9.2891301 3.49759,14.6197801 0,3.33778 -1.04036,6.6285699 -3.12297,9.8738795 -2.41693,3.7512004 -5.45841,5.6308504 -9.12721,5.6308504 h -22.00001 v -39.37821 0" />
      </g>
      <g
         transform="translate(47.625002)"
         id="g882">
        <path
           inkscape:connector-curvature="0"
           id="path28-0-5"
           style="fill:#000000;fill-opacity:1;fill-rule:nonzero;stroke:none;stroke-width:0.27561444"
           d="M 349.37741,-92.43717 V 32.562832 h 19.37406 v -54.623649 h 25.87704 c 11.16476,0 20.41523,-3.625909 27.7489,-10.878059 7.08336,-7.077309 10.62501,-15.830122 10.62501,-26.246268 0,-9.334069 -3.54165,-17.211467 -10.62501,-23.627186 -7.08289,-6.41648 -15.45679,-9.62484 -25.12523,-9.62484 z m 19.37406,18.501332 h 28.87555 c 4.00172,0 7.54172,1.54078 10.62625,4.62539 3.16532,2.99829 4.74805,6.3302 4.74805,10.00155 0,4.83395 -1.33289,8.9573 -3.99766,12.37431 -2.66679,3.41292 -6.085,5.12472 -10.25156,5.12472 h -30.00063 v -32.12597 0" />
        <path
           d="M 535.02261,-92.67923 V 32.562832 h 19.41442 v -80.907134 l 47.58785,80.907134 h 16.78495 V -92.67923 h -19.78681 v 81.533068 L 551.42817,-92.67923 h -16.40556 v 0"
           style="fill:#000000;fill-opacity:1;fill-rule:nonzero;stroke:none;stroke-width:0.35277623"
           id="path109-3-7"
           inkscape:connector-curvature="0" />
        <path
           inkscape:connector-curvature="0"
           id="path30"
           style="fill:#000000;fill-opacity:1;fill-rule:nonzero;stroke:none;stroke-width:0.3527655"
           d="m 481.55625,32.562832 c 8.36324,0 16.1089,-3.234627 23.24031,-9.713032 7.13141,-6.472797 10.69549,-13.6493397 10.69549,-21.519674 V -92.735829 H 497.78664 V 0.22659866 c 0,4.42461574 -1.72115,8.03020154 -5.16373,10.81763134 -3.11629,2.538841 -6.84682,3.813145 -11.19159,3.813145 -4.17823,0 -7.86715,-1.352699 -11.06331,-4.0572 -3.44249,-2.8698774 -5.16374,-6.3915504 -5.16374,-10.57357634 V -92.735829 H 447.86511 V 1.330126 c 0,8.2839861 3.60599,15.616344 10.82171,22.008966 6.96859,6.15319 14.59285,9.22374 22.86943,9.22374 v 0" />
      </g>
    </g>
  </g>
</svg>
