<?xml version="1.0" encoding="UTF-8" standalone="no"?>
<!-- Created with Inkscape (http://www.inkscape.org/) -->

<svg
   xmlns:dc="http://purl.org/dc/elements/1.1/"
   xmlns:cc="http://creativecommons.org/ns#"
   xmlns:rdf="http://www.w3.org/1999/02/22-rdf-syntax-ns#"
   xmlns:svg="http://www.w3.org/2000/svg"
   xmlns="http://www.w3.org/2000/svg"
   xmlns:sodipodi="http://sodipodi.sourceforge.net/DTD/sodipodi-0.dtd"
   xmlns:inkscape="http://www.inkscape.org/namespaces/inkscape"
   width="855.71619mm"
   height="1373.3105mm"
   viewBox="0 0 855.71619 1373.3105"
   version="1.1"
   id="svg8"
   inkscape:version="0.92.5 (2060ec1f9f, 2020-04-08)"
   sodipodi:docname="opinions-ahead.svg">
  <defs
     id="defs2" />
  <sodipodi:namedview
     id="base"
     pagecolor="#ffffff"
     bordercolor="#666666"
     borderopacity="1.0"
     inkscape:pageopacity="0.0"
     inkscape:pageshadow="2"
     inkscape:zoom="0.24748737"
     inkscape:cx="1299.2181"
     inkscape:cy="1242.9096"
     inkscape:document-units="mm"
     inkscape:current-layer="layer1"
     showgrid="false"
     inkscape:window-width="1848"
     inkscape:window-height="1016"
     inkscape:window-x="72"
     inkscape:window-y="27"
     inkscape:window-maximized="1"
     inkscape:snap-global="false"
     fit-margin-top="0"
     fit-margin-left="0"
     fit-margin-right="0"
     fit-margin-bottom="0" />
  <metadata
     id="metadata5">
    <rdf:RDF>
      <cc:Work
         rdf:about="">
        <dc:format>image/svg+xml</dc:format>
        <dc:type
           rdf:resource="http://purl.org/dc/dcmitype/StillImage" />
        <dc:title />
      </cc:Work>
    </rdf:RDF>
  </metadata>
  <g
     inkscape:label="Layer 1"
     inkscape:groupmode="layer"
     id="layer1"
     transform="translate(51.858091,1077.3105)">
    <rect
       style="opacity:1;vector-effect:none;fill:#fddc04;fill-opacity:1;fill-rule:nonzero;stroke:none;stroke-width:78.94929504;stroke-linecap:square;stroke-linejoin:round;stroke-miterlimit:4;stroke-dasharray:none;stroke-dashoffset:0;stroke-opacity:1"
       id="rect10"
       width="750"
       height="500"
       x="1.0000023"
       y="-204"
       rx="50"
       ry="50" />
    <rect
       ry="40"
       rx="40"
       y="-194"
       x="11.000002"
       height="480"
       width="730"
       id="rect829"
       style="opacity:1;vector-effect:none;fill:#000000;fill-opacity:1;fill-rule:nonzero;stroke:none;stroke-width:76.31583405;stroke-linecap:square;stroke-linejoin:round;stroke-miterlimit:4;stroke-dasharray:none;stroke-dashoffset:0;stroke-opacity:1" />
    <rect
       ry="20"
       rx="20"
       y="-174"
       x="31.000002"
       height="440"
       width="690"
       id="rect831"
       style="opacity:1;vector-effect:none;fill:#fddc04;fill-opacity:1;fill-rule:nonzero;stroke:none;stroke-width:71.03681946;stroke-linecap:square;stroke-linejoin:round;stroke-miterlimit:4;stroke-dasharray:none;stroke-dashoffset:0;stroke-opacity:1" />
    <g
       id="g891"
       transform="translate(-4.2333567)">
      <path
         inkscape:connector-curvature="0"
         id="path125"
         style="fill:#000000;fill-opacity:1;fill-rule:nonzero;stroke:none;stroke-width:0.27560952"
         d="m 115.1918,2.315642 c 3.82819,-7.33046 5.74921,-18.91485 5.74921,-34.75179 0,-29.7486 -7.75008,-44.62719 -23.250365,-44.62719 -8.251667,0 -14.334391,3.41812 -18.250711,10.24914 -4.169997,7.17031 -6.250777,18.6264 -6.250777,34.37805 0,30.17093 8.166257,45.248749 24.501488,45.248749 7.915455,0 13.747415,-3.4977296 17.501155,-10.496959 z M 65.940653,17.312761 C 57.771668,6.234541 53.689858,-10.350608 53.689858,-32.436148 c 0,-43.24914 14.667912,-64.876022 44.000787,-64.876022 13.747415,0 24.540215,6.2475 32.372955,18.752262 7.41937,11.83203 11.12625,27.20587 11.12625,46.12376 0,18.6685 -2.8332,33.41781 -8.49968,44.254059 -7.24854,13.833211 -18.91774,20.744921 -34.999525,20.744921 -13.670074,0 -24.250698,-5.08031 -31.749992,-15.250071" />
      <path
         d="M 157.11816,-92.43717 V 32.562832 h 19.37406 v -54.623649 h 25.87704 c 11.16476,0 20.41523,-3.625909 27.7489,-10.878059 7.08336,-7.077309 10.62501,-15.830122 10.62501,-26.246268 0,-9.334069 -3.54165,-17.211467 -10.62501,-23.627186 -7.08289,-6.41648 -15.45679,-9.62484 -25.12523,-9.62484 z m 19.37406,18.501332 h 28.87555 c 4.00172,0 7.54172,1.54078 10.62625,4.62539 3.16532,2.99829 4.74805,6.3302 4.74805,10.00155 0,4.83395 -1.33289,8.9573 -3.99766,12.37431 -2.66679,3.41292 -6.085,5.12472 -10.25156,5.12472 h -30.00063 v -32.12597 0"
         style="fill:#000000;fill-opacity:1;fill-rule:nonzero;stroke:none;stroke-width:0.27561444"
         id="path28-0-5"
         inkscape:connector-curvature="0" />
      <rect
         style="opacity:1;fill:#000000;fill-opacity:1;fill-rule:nonzero;stroke:none;stroke-width:6.82534599;stroke-linecap:square;stroke-linejoin:round;stroke-miterlimit:4;stroke-dasharray:none;stroke-dashoffset:0;stroke-opacity:1"
         id="rect119"
         width="19.558659"
         height="124.57745"
         x="256.67148"
         y="-92.014618" />
      <path
         inkscape:connector-curvature="0"
         id="path109-3"
         style="fill:#000000;fill-opacity:1;fill-rule:nonzero;stroke:none;stroke-width:0.35277623"
         d="M 296.3918,-92.67923 V 32.562832 h 19.41442 V -48.3443 l 47.58785,80.907132 h 16.78495 V -92.67923 h -19.78681 v 81.533065 L 312.79736,-92.67923 H 296.3918 v 0" />
      <rect
         style="opacity:1;fill:#000000;fill-opacity:1;fill-rule:nonzero;stroke:none;stroke-width:6.82534599;stroke-linecap:square;stroke-linejoin:round;stroke-miterlimit:4;stroke-dasharray:none;stroke-dashoffset:0;stroke-opacity:1"
         id="rect119-3"
         width="19.558661"
         height="124.57745"
         x="400.34076"
         y="-92.014618" />
      <path
         inkscape:connector-curvature="0"
         id="path125-6"
         style="fill:#000000;fill-opacity:1;fill-rule:nonzero;stroke:none;stroke-width:0.27560952"
         d="m 497.32962,2.31564 c 3.82819,-7.33046 5.74921,-18.91485 5.74921,-34.751789 0,-29.748601 -7.75008,-44.627191 -23.25037,-44.627191 -8.25167,0 -14.3344,3.41812 -18.25072,10.24914 -4.17,7.17031 -6.25078,18.6264 -6.25078,34.37805 0,30.17093 8.16626,45.248756 24.5015,45.248756 7.91546,0 13.74742,-3.4977277 17.50116,-10.496966 z m -49.25117,14.997126 c -8.16899,-11.078226 -12.2508,-27.663376 -12.2508,-49.748915 0,-43.249141 14.66792,-64.876021 44.00081,-64.876021 13.74742,0 24.54022,6.2475 32.37296,18.75226 7.41937,11.83203 11.12625,27.20587 11.12625,46.12376 0,18.6685 -2.8332,33.41781 -8.49968,44.254065 -7.24854,13.833213 -18.91774,20.744917 -34.99953,20.744917 -13.67008,0 -24.25071,-5.080305 -31.75001,-15.250066" />
      <path
         inkscape:connector-curvature="0"
         id="path109-3-7"
         style="fill:#000000;fill-opacity:1;fill-rule:nonzero;stroke:none;stroke-width:0.35277623"
         d="M 539.25597,-92.67923 V 32.562832 h 19.41442 v -80.907134 l 47.58785,80.907134 h 16.78495 V -92.67923 h -19.78681 v 81.533068 L 555.66153,-92.67923 h -16.40556 v 0" />
      <path
         inkscape:connector-curvature="0"
         id="path964"
         style="fill:#000000;fill-opacity:1;fill-rule:nonzero;stroke:none;stroke-width:0.35277039"
         d="m 656.47848,-5.655469 c 0.0863,7.231957 1.37608,12.576411 3.88204,16.025119 2.5056,3.458664 6.67624,5.223884 12.51194,5.302169 4.85018,0.0863 8.73222,-1.64465 11.64908,-5.174831 2.91872,-3.536964 4.38011,-7.933292 4.38011,-13.191213 0,-2.709391 -0.45368,-5.548352 -1.35611,-8.506156 -2.14018,-6.988734 -6.20752,-12.62019 -12.20447,-16.890907 -5.67087,-3.448802 -11.34507,-6.902312 -17.01421,-10.35618 -4.11123,-2.95608 -7.35602,-6.87829 -9.73982,-11.770927 -2.38157,-4.889061 -3.57593,-10.086096 -3.57593,-15.597094 0,-8.296959 3.28708,-15.364102 9.86174,-21.201201 6.24882,-5.67373 13.5178,-8.51096 21.82211,-8.51096 8.63039,0 15.79951,2.98468 21.51118,8.94281 5.71328,5.957653 8.57072,13.373056 8.57072,22.249295 H 689.7645 c 0,-3.119046 -1.42046,-6.263871 -4.25213,-9.428519 -2.83735,-3.166523 -5.77653,-4.750024 -8.81741,-4.750024 -3.45191,0 -6.61731,1.231543 -9.49325,3.701791 -3.12434,2.626435 -4.6835,5.709851 -4.6835,9.245086 0,6.818728 2.79432,11.585629 8.3837,14.303787 23.67048,11.669105 35.50659,27.85904 35.50659,48.569198 0,10.685346 -3.29276,19.313803 -9.86198,25.8898 -6.33364,6.241677 -14.22298,9.367258 -23.67406,9.367258 -9.69715,0 -17.62557,-3.161197 -23.79266,-9.49287 C 642.33859,16.167636 638.9715,6.594749 638.9715,-5.65547 h 17.50698" />
    </g>
    <g
       id="g881"
       transform="translate(12.170912,8.9958338)">
      <path
         inkscape:connector-curvature="0"
         id="path968"
         style="fill:#000000;fill-opacity:1;fill-rule:nonzero;stroke:none;stroke-width:0.35276821"
         d="m 205.99979,137.65125 -8.81665,-33.41119 -8.69333,33.41119 z M 188.48981,65.121693 h 17.50998 l 31.17393,124.190477 h -17.76061 l -8.94159,-34.527 h -25.33101 l -8.322,34.527 H 158.8099 L 188.48981,65.121693" />
      <path
         inkscape:connector-curvature="0"
         id="path966"
         style="fill:#000000;fill-opacity:1;fill-rule:nonzero;stroke:none;stroke-width:0.35276988"
         d="m 267.18884,66.358708 v 49.797942 h 33.80962 V 66.358708 h 16.35503 V 189.31217 h -16.35503 v -55.8179 h -33.80962 v 55.8179 H 249.72907 V 66.358708 h 17.45978" />
      <path
         inkscape:connector-curvature="0"
         id="path972"
         style="fill:#000000;fill-opacity:1;fill-rule:nonzero;stroke:none;stroke-width:0.35276553"
         d="m 395.96429,68.145508 v 17.089173 h -42.04156 v 30.412109 h 25.80365 v 16.59836 h -25.80365 v 39.98254 h 43.9778 v 17.08448 H 337.31722 V 68.145508 h 58.64707" />
      <path
         inkscape:connector-curvature="0"
         id="path968-5"
         style="fill:#000000;fill-opacity:1;fill-rule:nonzero;stroke:none;stroke-width:0.35276824"
         d="m 457.64579,137.65125 -8.81665,-33.41118 -8.69332,33.41118 z M 440.13582,65.121694 h 17.50997 l 31.17393,124.190476 h -17.76063 l -8.94157,-34.527 h -25.33103 l -8.322,34.527 h -18.0086 L 440.13582,65.121694" />
      <path
         inkscape:connector-curvature="0"
         id="path974"
         style="fill:#000000;fill-opacity:1;fill-rule:nonzero;stroke:none;stroke-width:0.35278109"
         d="m 518.42739,83.567751 v 88.446759 h 11.77653 c 8.83322,0 14.80595,-4.24509 17.9091,-12.75822 2.04714,-5.56019 3.06857,-14.64035 3.06857,-27.23447 v -6.98901 c 0,-13.41602 -1.13821,-23.02492 -3.43219,-28.836719 -3.35415,-8.41745 -9.73785,-12.62834 -19.13834,-12.62834 z m 42.56996,0 c 5.23248,9.32158 7.85093,23.019779 7.85093,41.096789 0,21.26182 -2.40634,36.72153 -7.23631,46.36759 -6.05052,12.18742 -16.85311,18.28004 -32.39058,18.28004 H 501.37507 V 66.633606 h 27.84632 c 14.80165,0 25.40084,5.642993 31.77596,16.934145" />
    </g>
    <rect
       style="fill:#fddc04;fill-opacity:1;stroke:none;stroke-width:0.63939899"
       id="rect18"
       width="634.30774"
       height="634.30774"
       x="407.9505"
       y="-510.51392"
       rx="50"
       ry="50"
       transform="rotate(-45)" />
    <rect
       style="fill:#000000;fill-opacity:1;stroke:none;stroke-width:0.62234801"
       id="rect20"
       width="617.39288"
       height="617.39288"
       x="416.4079"
       y="-502.05649"
       rx="40"
       ry="40"
       transform="rotate(-45)" />
    <rect
       style="fill:#fddc04;fill-opacity:1;stroke:none;stroke-width:0.588247"
       id="rect22"
       width="583.56311"
       height="583.56311"
       x="433.32281"
       y="-485.1416"
       rx="20"
       ry="20"
       transform="rotate(-45)" />
    <circle
       style="fill:#000000;fill-opacity:1;stroke:none;stroke-width:0.27226403"
       id="path32"
       cx="376"
       cy="-406.30118"
       r="74.002579" />
    <path
       style="fill:#000000;fill-opacity:1;fill-rule:nonzero;stroke:none;stroke-width:0.35278001"
       d="m 359.93074,-512.44195 c 0,0 -79.07703,-296.43574 -79.07703,-348.86916 l 95.14625,-95.14629 95.14634,95.14629 c 0,52.43342 -79.07704,348.86916 -79.07704,348.86916 z"
       id="path107"
       inkscape:connector-curvature="0"
       sodipodi:nodetypes="cccccc" />
    <path
       style="fill:#000000;fill-opacity:1;stroke:none;stroke-width:0.350052"
       id="circle874"
       sodipodi:type="arc"
       sodipodi:cx="376"
       sodipodi:cy="-861.31122"
       sodipodi:rx="95.146164"
       sodipodi:ry="95.146164"
       sodipodi:start="3.1415927"
       sodipodi:end="0"
       sodipodi:arc-type="slice"
       d="M 280.85384,-861.31122 A 95.146164,95.146164 0 0 1 376,-956.45738 a 95.146164,95.146164 0 0 1 95.14616,95.14616 H 376 Z" />
  </g>
</svg>
